# xmcd
#
# Track frame offsets: 
#        150
#        13252
#        30702
#        41747
#        56217
#        66387
#        77465
#        90452
#        101925
#        111600
#        122537
#        131560
#        140985
#        152450
#        163997
#        176422
#        187317
#        208384
#        219172
#        231432
#        243135
#        260820
#        271650
#        283742
#        297427
#        309920
#        322352
#        333402
#
# Disc length: 4684 seconds
#
# Revision: 8
# Processed by: cddbd v1.5.2PL0 Copyright (c) Steve Scherf et al.
# Submitted via: ExactAudioCopyFreeDBPlugin 1.0
#
DISCID=bf124a1c
DTITLE=Booker T. and the M.G.'s  - Time is Tight [Stax box set]
DYEAR=1998
DGENRE=Soul
TTITLE0=Green Onions
TTITLE1=Behave Yourself
TTITLE2=Jellybread
TTITLE3=Home Grown
TTITLE4=Burnt Biscuits
TTITLE5=Chinese Crackers
TTITLE6=Mo' Onions
TTITLE7=Tic-Tac-Toe
TTITLE8=Fannie Mae
TTITLE9=Soul Dressing
TTITLE10=Can't Be Still
TTITLE11=Boot-Leg
TTITLE12=Outrage
TTITLE13=Be My Lady
TTITLE14=My Sweet Potato
TTITLE15=Hip Hug-Her
TTITLE16=Summertime
TTITLE17=Slim Jenkins' Place
TTITLE18=Groovin'
TTITLE19=Soul Sanction
TTITLE20=Pigmy
TTITLE21=Booker's Notion
TTITLE22=I Can Dig It
TTITLE23=Expressway (To Your Heart)
TTITLE24=You Don't Love Me
TTITLE25=Never My Love
TTITLE26=Blue on Green
TTITLE27=Ode to Billy Joe
EXTD=BOOKER T. and THE MG's "Time Is Tight" (3 CD-Set]\n1962 - 1993\nLab
EXTD=el: Stax Records\nStax 3SCD-4424-2\nAll tracks digitally remaster
EXTD=ed
EXTT0=
EXTT1=
EXTT2=
EXTT3=
EXTT4=
EXTT5=
EXTT6=
EXTT7=
EXTT8=
EXTT9=
EXTT10=
EXTT11=
EXTT12=
EXTT13=
EXTT14=
EXTT15=
EXTT16=
EXTT17=
EXTT18=
EXTT19=
EXTT20=
EXTT21=
EXTT22=
EXTT23=
EXTT24=
EXTT25=
EXTT26=
EXTT27=
PLAYORDER=
